# Blender v2.79 (sub 0) OBJ File: 'Sample_data2_export.blend'
# www.blender.org
mtllib Call_Button.mtl
o Curve_CUCurve
v 0.020479 0.004985 0.033288
v 0.020450 0.004985 0.033240
v 0.018433 0.004985 0.033817
v 0.017602 0.004985 0.033993
v 0.015906 0.004985 0.034227
v 0.014683 0.004985 0.034295
v 0.013130 0.004985 0.034266
v 0.012365 0.004985 0.034203
v 0.010845 0.004985 0.033979
v 0.009303 0.004985 0.033544
v 0.007732 0.004985 0.032957
v 0.005710 0.004985 0.032036
v 0.003302 0.004985 0.030718
v 0.000570 0.004985 0.028938
v -0.002423 0.004985 0.026630
v -0.005613 0.004985 0.023731
v -0.008937 0.004985 0.020176
v -0.012333 0.004985 0.015899
v -0.015737 0.004985 0.010837
v -0.019086 0.004985 0.004924
v -0.023227 0.004985 -0.003764
v -0.026114 0.004985 -0.011523
v -0.027094 0.004985 -0.015100
v -0.027770 0.004985 -0.018501
v -0.028145 0.004985 -0.021744
v -0.028220 0.004985 -0.024849
v -0.028000 0.004985 -0.027833
v -0.027487 0.004985 -0.030716
v -0.026684 0.004985 -0.033515
v -0.025594 0.004985 -0.036251
v -0.024926 0.004985 -0.037587
v -0.024123 0.004985 -0.038896
v -0.023175 0.004985 -0.040191
v -0.022026 0.004985 -0.041482
v -0.020778 0.004985 -0.042639
v -0.019448 0.004985 -0.043650
v -0.019502 0.004985 -0.043754
v -0.015676 0.004985 -0.045753
v -0.014965 0.004985 -0.046065
v -0.014237 0.004985 -0.046277
v -0.013502 0.004985 -0.046392
v -0.012768 0.004985 -0.046412
v -0.012045 0.004985 -0.046340
v -0.011343 0.004985 -0.046180
v -0.010669 0.004985 -0.045933
v -0.010034 0.004985 -0.045602
v -0.009447 0.004985 -0.045190
v -0.008916 0.004985 -0.044700
v -0.008451 0.004985 -0.044135
v -0.008061 0.004985 -0.043497
v -0.001026 0.004985 -0.029938
v -0.000729 0.004985 -0.029251
v -0.000535 0.004985 -0.028545
v -0.000440 0.004985 -0.027829
v -0.000441 0.004985 -0.027111
v -0.000536 0.004985 -0.026402
v -0.000721 0.004985 -0.025709
v -0.000993 0.004985 -0.025042
v -0.001350 0.004985 -0.024410
v -0.001789 0.004985 -0.023822
v -0.002306 0.004985 -0.023287
v -0.002898 0.004985 -0.022815
v -0.003562 0.004985 -0.022413
v -0.010400 0.004985 -0.018869
v -0.008896 0.004985 -0.012167
v -0.007124 0.004985 -0.006817
v -0.005840 0.004985 -0.003867
v -0.004261 0.004985 -0.000823
v -0.002593 0.004985 0.001918
v 0.000756 0.004985 0.006440
v 0.005387 0.004985 0.011540
v 0.012217 0.004985 0.007998
v 0.012928 0.004985 0.007686
v 0.013654 0.004985 0.007474
v 0.014389 0.004985 0.007360
v 0.015122 0.004985 0.007340
v 0.015844 0.004985 0.007412
v 0.016547 0.004985 0.007572
v 0.017220 0.004985 0.007819
v 0.017855 0.004985 0.008150
v 0.018443 0.004985 0.008562
v 0.018975 0.004985 0.009051
v 0.019441 0.004985 0.009616
v 0.019832 0.004985 0.010254
v 0.026867 0.004985 0.023812
v 0.027164 0.004985 0.024499
v 0.027358 0.004985 0.025206
v 0.027452 0.004985 0.025923
v 0.027451 0.004985 0.026641
v 0.027356 0.004985 0.027351
v 0.027170 0.004985 0.028044
v 0.026897 0.004985 0.028711
v 0.026540 0.004985 0.029343
v 0.026102 0.004985 0.029931
v 0.025586 0.004985 0.030466
v 0.024994 0.004985 0.030939
v 0.024331 0.004985 0.031341
v 0.020479 -0.000575 0.033288
v 0.020450 -0.000575 0.033240
v 0.018433 -0.000575 0.033817
v 0.017602 -0.000575 0.033993
v 0.015906 -0.000575 0.034227
v 0.014683 -0.000575 0.034295
v 0.013130 -0.000575 0.034266
v 0.012365 -0.000575 0.034203
v 0.010845 -0.000575 0.033979
v 0.009303 -0.000575 0.033544
v 0.007732 -0.000575 0.032957
v 0.005710 -0.000575 0.032036
v 0.003302 -0.000575 0.030718
v 0.000570 -0.000575 0.028938
v -0.002423 -0.000575 0.026630
v -0.005613 -0.000575 0.023731
v -0.008937 -0.000575 0.020176
v -0.012333 -0.000575 0.015899
v -0.015737 -0.000575 0.010837
v -0.019086 -0.000575 0.004924
v -0.023227 -0.000575 -0.003764
v -0.026114 -0.000575 -0.011523
v -0.027094 -0.000575 -0.015100
v -0.027770 -0.000575 -0.018501
v -0.028145 -0.000575 -0.021744
v -0.028220 -0.000575 -0.024849
v -0.028000 -0.000575 -0.027833
v -0.027487 -0.000575 -0.030716
v -0.026684 -0.000575 -0.033515
v -0.025594 -0.000575 -0.036251
v -0.024926 -0.000575 -0.037587
v -0.024123 -0.000575 -0.038896
v -0.023175 -0.000575 -0.040191
v -0.022026 -0.000575 -0.041482
v -0.020778 -0.000575 -0.042639
v -0.019448 -0.000575 -0.043650
v -0.019502 -0.000575 -0.043754
v -0.015676 -0.000575 -0.045753
v -0.014965 -0.000575 -0.046065
v -0.014237 -0.000575 -0.046277
v -0.013502 -0.000575 -0.046392
v -0.012768 -0.000575 -0.046412
v -0.012045 -0.000575 -0.046340
v -0.011343 -0.000575 -0.046180
v -0.010669 -0.000575 -0.045933
v -0.010034 -0.000575 -0.045602
v -0.009447 -0.000575 -0.045190
v -0.008916 -0.000575 -0.044700
v -0.008451 -0.000575 -0.044135
v -0.008061 -0.000575 -0.043497
v -0.001026 -0.000575 -0.029938
v -0.000729 -0.000575 -0.029251
v -0.000535 -0.000575 -0.028545
v -0.000440 -0.000575 -0.027829
v -0.000441 -0.000575 -0.027111
v -0.000536 -0.000575 -0.026402
v -0.000721 -0.000575 -0.025709
v -0.000993 -0.000575 -0.025042
v -0.001350 -0.000575 -0.024410
v -0.001789 -0.000575 -0.023822
v -0.002306 -0.000575 -0.023287
v -0.002898 -0.000575 -0.022815
v -0.003562 -0.000575 -0.022413
v -0.010400 -0.000575 -0.018869
v -0.008896 -0.000575 -0.012167
v -0.007124 -0.000575 -0.006817
v -0.005840 -0.000575 -0.003867
v -0.004261 -0.000575 -0.000823
v -0.002593 -0.000575 0.001918
v 0.000756 -0.000575 0.006440
v 0.005387 -0.000575 0.011540
v 0.012217 -0.000575 0.007998
v 0.012928 -0.000575 0.007686
v 0.013654 -0.000575 0.007474
v 0.014389 -0.000575 0.007360
v 0.015122 -0.000575 0.007340
v 0.015844 -0.000575 0.007412
v 0.016547 -0.000575 0.007572
v 0.017220 -0.000575 0.007819
v 0.017855 -0.000575 0.008150
v 0.018443 -0.000575 0.008562
v 0.018975 -0.000575 0.009051
v 0.019441 -0.000575 0.009616
v 0.019832 -0.000575 0.010254
v 0.026867 -0.000575 0.023812
v 0.027164 -0.000575 0.024499
v 0.027358 -0.000575 0.025206
v 0.027452 -0.000575 0.025923
v 0.027451 -0.000575 0.026641
v 0.027356 -0.000575 0.027351
v 0.027170 -0.000575 0.028044
v 0.026897 -0.000575 0.028711
v 0.026540 -0.000575 0.029343
v 0.026102 -0.000575 0.029931
v 0.025586 -0.000575 0.030466
v 0.024994 -0.000575 0.030939
v 0.024331 -0.000575 0.031341
v 0.020479 -0.000575 0.033288
v 0.020479 0.004985 0.033288
v 0.020450 -0.000575 0.033240
v 0.020450 0.004985 0.033240
v 0.020043 -0.000575 0.033351
v 0.020043 0.004985 0.033351
v 0.019247 -0.000575 0.033603
v 0.019247 0.004985 0.033603
v 0.018433 -0.000575 0.033817
v 0.018433 0.004985 0.033817
v 0.017602 -0.000575 0.033993
v 0.017602 0.004985 0.033993
v 0.015906 -0.000575 0.034227
v 0.015906 0.004985 0.034227
v 0.015476 -0.000575 0.034260
v 0.015476 0.004985 0.034260
v 0.015078 -0.000575 0.034282
v 0.015078 0.004985 0.034282
v 0.014683 -0.000575 0.034295
v 0.014683 0.004985 0.034295
v 0.013130 -0.000575 0.034266
v 0.013130 0.004985 0.034266
v 0.012365 -0.000575 0.034203
v 0.012365 0.004985 0.034203
v 0.011984 -0.000575 0.034159
v 0.011984 0.004985 0.034159
v 0.011604 -0.000575 0.034107
v 0.011604 0.004985 0.034107
v 0.011224 -0.000575 0.034047
v 0.011224 0.004985 0.034047
v 0.010845 -0.000575 0.033979
v 0.010845 0.004985 0.033979
v 0.009303 -0.000575 0.033544
v 0.009303 0.004985 0.033544
v 0.007732 -0.000575 0.032957
v 0.007732 0.004985 0.032957
v 0.005710 -0.000575 0.032036
v 0.005710 0.004985 0.032036
v 0.003302 -0.000575 0.030718
v 0.003302 0.004985 0.030718
v 0.000570 -0.000575 0.028938
v 0.000570 0.004985 0.028938
v -0.002423 -0.000575 0.026630
v -0.002423 0.004985 0.026630
v -0.005613 -0.000575 0.023731
v -0.005613 0.004985 0.023731
v -0.008937 -0.000575 0.020176
v -0.008937 0.004985 0.020176
v -0.012333 -0.000575 0.015899
v -0.012333 0.004985 0.015899
v -0.015737 -0.000575 0.010837
v -0.015737 0.004985 0.010837
v -0.019086 -0.000575 0.004924
v -0.019086 0.004985 0.004924
v -0.023227 -0.000575 -0.003764
v -0.023227 0.004985 -0.003764
v -0.026114 -0.000575 -0.011523
v -0.026114 0.004985 -0.011523
v -0.027094 -0.000575 -0.015100
v -0.027094 0.004985 -0.015100
v -0.027770 -0.000575 -0.018501
v -0.027770 0.004985 -0.018501
v -0.028145 -0.000575 -0.021744
v -0.028145 0.004985 -0.021744
v -0.028220 -0.000575 -0.024849
v -0.028220 0.004985 -0.024849
v -0.028000 -0.000575 -0.027833
v -0.028000 0.004985 -0.027833
v -0.027487 -0.000575 -0.030716
v -0.027487 0.004985 -0.030716
v -0.026684 -0.000575 -0.033515
v -0.026684 0.004985 -0.033515
v -0.025594 -0.000575 -0.036251
v -0.025594 0.004985 -0.036251
v -0.024926 -0.000575 -0.037587
v -0.024926 0.004985 -0.037587
v -0.024123 -0.000575 -0.038896
v -0.024123 0.004985 -0.038896
v -0.023900 -0.000575 -0.039220
v -0.023900 0.004985 -0.039220
v -0.023668 -0.000575 -0.039544
v -0.023668 0.004985 -0.039544
v -0.023426 -0.000575 -0.039868
v -0.023426 0.004985 -0.039868
v -0.023175 -0.000575 -0.040191
v -0.023175 0.004985 -0.040191
v -0.022026 -0.000575 -0.041482
v -0.022026 0.004985 -0.041482
v -0.021414 -0.000575 -0.042078
v -0.021414 0.004985 -0.042078
v -0.021099 -0.000575 -0.042363
v -0.021099 0.004985 -0.042363
v -0.020778 -0.000575 -0.042639
v -0.020778 0.004985 -0.042639
v -0.020453 -0.000575 -0.042906
v -0.020453 0.004985 -0.042906
v -0.020122 -0.000575 -0.043164
v -0.020122 0.004985 -0.043164
v -0.019787 -0.000575 -0.043412
v -0.019787 0.004985 -0.043412
v -0.019448 -0.000575 -0.043650
v -0.019448 0.004985 -0.043650
v -0.019502 -0.000575 -0.043754
v -0.019502 0.004985 -0.043754
v -0.015676 -0.000575 -0.045753
v -0.015676 0.004985 -0.045753
v -0.014965 -0.000575 -0.046065
v -0.014965 0.004985 -0.046065
v -0.014237 -0.000575 -0.046277
v -0.014237 0.004985 -0.046277
v -0.013502 -0.000575 -0.046392
v -0.013502 0.004985 -0.046392
v -0.012768 -0.000575 -0.046412
v -0.012768 0.004985 -0.046412
v -0.012045 -0.000575 -0.046340
v -0.012045 0.004985 -0.046340
v -0.011343 -0.000575 -0.046180
v -0.011343 0.004985 -0.046180
v -0.010669 -0.000575 -0.045933
v -0.010669 0.004985 -0.045933
v -0.010034 -0.000575 -0.045602
v -0.010034 0.004985 -0.045602
v -0.009447 -0.000575 -0.045190
v -0.009447 0.004985 -0.045190
v -0.008916 -0.000575 -0.044700
v -0.008916 0.004985 -0.044700
v -0.008451 -0.000575 -0.044135
v -0.008451 0.004985 -0.044135
v -0.008061 -0.000575 -0.043497
v -0.008061 0.004985 -0.043497
v -0.001026 -0.000575 -0.029938
v -0.001026 0.004985 -0.029938
v -0.000729 -0.000575 -0.029251
v -0.000729 0.004985 -0.029251
v -0.000535 -0.000575 -0.028545
v -0.000535 0.004985 -0.028545
v -0.000440 -0.000575 -0.027829
v -0.000440 0.004985 -0.027829
v -0.000441 -0.000575 -0.027111
v -0.000441 0.004985 -0.027111
v -0.000536 -0.000575 -0.026402
v -0.000536 0.004985 -0.026402
v -0.000721 -0.000575 -0.025709
v -0.000721 0.004985 -0.025709
v -0.000993 -0.000575 -0.025042
v -0.000993 0.004985 -0.025042
v -0.001350 -0.000575 -0.024410
v -0.001350 0.004985 -0.024410
v -0.001789 -0.000575 -0.023822
v -0.001789 0.004985 -0.023822
v -0.002306 -0.000575 -0.023287
v -0.002306 0.004985 -0.023287
v -0.002898 -0.000575 -0.022815
v -0.002898 0.004985 -0.022815
v -0.003562 -0.000575 -0.022413
v -0.003562 0.004985 -0.022413
v -0.010400 -0.000575 -0.018869
v -0.010400 0.004985 -0.018869
v -0.009735 -0.000575 -0.015649
v -0.009735 0.004985 -0.015649
v -0.009489 -0.000575 -0.014542
v -0.009489 0.004985 -0.014542
v -0.009212 -0.000575 -0.013381
v -0.009212 0.004985 -0.013381
v -0.008896 -0.000575 -0.012167
v -0.008896 0.004985 -0.012167
v -0.008125 -0.000575 -0.009588
v -0.008125 0.004985 -0.009588
v -0.007656 -0.000575 -0.008225
v -0.007656 0.004985 -0.008225
v -0.007124 -0.000575 -0.006817
v -0.007124 0.004985 -0.006817
v -0.005840 -0.000575 -0.003867
v -0.005840 0.004985 -0.003867
v -0.004261 -0.000575 -0.000823
v -0.004261 0.004985 -0.000823
v -0.002593 -0.000575 0.001918
v -0.002593 0.004985 0.001918
v 0.000756 -0.000575 0.006440
v 0.000756 0.004985 0.006440
v 0.005387 -0.000575 0.011540
v 0.005387 0.004985 0.011540
v 0.012217 -0.000575 0.007998
v 0.012217 0.004985 0.007998
v 0.012928 -0.000575 0.007686
v 0.012928 0.004985 0.007686
v 0.013654 -0.000575 0.007474
v 0.013654 0.004985 0.007474
v 0.014389 -0.000575 0.007360
v 0.014389 0.004985 0.007360
v 0.015122 -0.000575 0.007340
v 0.015122 0.004985 0.007340
v 0.015844 -0.000575 0.007412
v 0.015844 0.004985 0.007412
v 0.016547 -0.000575 0.007572
v 0.016547 0.004985 0.007572
v 0.017220 -0.000575 0.007819
v 0.017220 0.004985 0.007819
v 0.017855 -0.000575 0.008150
v 0.017855 0.004985 0.008150
v 0.018443 -0.000575 0.008562
v 0.018443 0.004985 0.008562
v 0.018975 -0.000575 0.009051
v 0.018975 0.004985 0.009051
v 0.019441 -0.000575 0.009616
v 0.019441 0.004985 0.009616
v 0.019832 -0.000575 0.010254
v 0.019832 0.004985 0.010254
v 0.026867 -0.000575 0.023812
v 0.026867 0.004985 0.023812
v 0.027164 -0.000575 0.024499
v 0.027164 0.004985 0.024499
v 0.027358 -0.000575 0.025206
v 0.027358 0.004985 0.025206
v 0.027452 -0.000575 0.025923
v 0.027452 0.004985 0.025923
v 0.027451 -0.000575 0.026641
v 0.027451 0.004985 0.026641
v 0.027356 -0.000575 0.027351
v 0.027356 0.004985 0.027351
v 0.027170 -0.000575 0.028044
v 0.027170 0.004985 0.028044
v 0.026897 -0.000575 0.028711
v 0.026897 0.004985 0.028711
v 0.026540 -0.000575 0.029343
v 0.026540 0.004985 0.029343
v 0.026102 -0.000575 0.029931
v 0.026102 0.004985 0.029931
v 0.025586 -0.000575 0.030466
v 0.025586 0.004985 0.030466
v 0.024994 -0.000575 0.030939
v 0.024994 0.004985 0.030939
v 0.024331 -0.000575 0.031341
v 0.024331 0.004985 0.031341
vn -0.4313 0.0000 -0.9022
vn 0.1766 0.0000 -0.9843
vn 0.0000 1.0000 0.0000
vn 0.0000 -1.0000 0.0000
vn 0.2751 0.0000 0.9614
vn 0.2412 0.0000 0.9704
vn -0.3683 0.0000 0.9297
vn -0.9209 0.0000 0.3899
vn -0.9518 0.0000 0.3069
vn -0.6050 0.0000 -0.7962
vn -0.9760 0.0000 -0.2176
vn -0.6434 0.0000 -0.7655
vn 0.9028 0.0000 -0.4301
vn 0.8715 0.0000 -0.4904
vn -0.0505 0.0000 0.9987
vn 0.0184 0.0000 0.9998
vn -0.1141 0.0000 0.9934
vn -0.8742 0.0000 -0.4855
vn -0.9125 0.0000 -0.4090
vn -0.3110 0.0000 0.9504
vn -0.3825 0.0000 0.9239
vn -0.4475 0.0000 0.8943
vn -0.5134 0.0000 0.8581
vn -0.5787 0.0000 0.8155
vn -0.6421 0.0000 0.7666
vn -0.7021 0.0000 0.7121
vn -0.7574 0.0000 0.6529
vn -0.8071 0.0000 0.5904
vn -0.8506 0.0000 0.5258
vn -0.8870 0.0000 0.4618
vn 0.9757 0.0000 -0.2189
vn 0.9637 0.0000 -0.2670
vn 0.9065 0.0000 0.4223
vn 0.9492 0.0000 -0.3145
vn 0.9340 0.0000 -0.3572
vn -0.9732 0.0000 0.2298
vn -0.9879 0.0000 0.1549
vn -0.9976 0.0000 0.0696
vn -0.9997 0.0000 -0.0246
vn -0.9922 0.0000 -0.1245
vn -0.9742 0.0000 -0.2257
vn -0.9463 0.0000 -0.3233
vn 0.1719 0.0000 0.9851
vn 0.0960 0.0000 0.9954
vn -0.7143 0.0000 -0.6998
vn -0.7778 0.0000 -0.6285
vn -0.8303 0.0000 -0.5572
vn -0.6801 0.0000 -0.7331
vn -0.1457 0.0000 0.9893
vn -0.2090 0.0000 0.9779
vn 0.8298 0.0000 -0.5580
vn 0.7729 0.0000 -0.6345
vn -0.9543 0.0000 -0.2989
vn -0.4327 0.0000 -0.9015
vn -0.3416 0.0000 -0.9398
vn -0.2174 0.0000 -0.9760
vn -0.0911 0.0000 -0.9958
vn 0.0356 0.0000 -0.9994
vn 0.1612 0.0000 -0.9869
vn 0.2843 0.0000 -0.9587
vn 0.4040 0.0000 -0.9147
vn 0.5190 0.0000 -0.8548
vn 0.6274 0.0000 -0.7787
vn 0.7269 0.0000 -0.6868
vn 0.8147 0.0000 -0.5799
vn 0.8709 0.0000 -0.4914
vn 0.9033 0.0000 -0.4290
vn 0.9432 0.0000 -0.3322
vn 0.9799 0.0000 -0.1991
vn 0.9979 0.0000 -0.0651
vn 0.9977 0.0000 0.0672
vn 0.9807 0.0000 0.1957
vn 0.9478 0.0000 0.3189
vn 0.8999 0.0000 0.4360
vn 0.8378 0.0000 0.5459
vn 0.7619 0.0000 0.6477
vn 0.6729 0.0000 0.7397
vn 0.5718 0.0000 0.8204
vn 0.4889 0.0000 0.8723
vn -0.2788 0.0000 0.9604
vn -0.8070 0.0000 -0.5906
vn 0.0554 0.0000 0.9984
vn -0.3415 0.0000 -0.9399
vn -0.2173 0.0000 -0.9761
vn -0.0909 0.0000 -0.9958
vn 0.0358 0.0000 -0.9993
vn 0.1613 0.0000 -0.9869
vn 0.4039 0.0000 -0.9148
vn 0.5186 0.0000 -0.8550
vn 0.6268 0.0000 -0.7792
vn 0.7261 0.0000 -0.6876
vn 0.8138 0.0000 -0.5811
vn 0.8705 0.0000 -0.4921
vn 0.9035 0.0000 -0.4286
vn 0.9435 0.0000 -0.3312
vn 0.9801 0.0000 -0.1983
vn 0.9979 0.0000 -0.0644
vn 0.9977 0.0000 0.0678
vn 0.9806 0.0000 0.1960
vn 0.9477 0.0000 0.3191
vn 0.9000 0.0000 0.4359
vn 0.8380 0.0000 0.5457
vn 0.7623 0.0000 0.6472
vn 0.6734 0.0000 0.7392
vn 0.5725 0.0000 0.8199
vn 0.4849 0.0000 0.8746
usemtl Button
s 1
f 378//1 377//1 375//2 376//2
s off
f 5//3 4//3 3//3 2//3 1//3 97//3 96//3 95//3 94//3 93//3 92//3 91//3 90//3 89//3 88//3 87//3 86//3 85//3 84//3 83//3 82//3 81//3 80//3 79//3 78//3 77//3 76//3 75//3 74//3 73//3 72//3 71//3 70//3 69//3 68//3 67//3 66//3 65//3 64//3 63//3 62//3 61//3 60//3 59//3 58//3 57//3 56//3 55//3 54//3 53//3 52//3 51//3 50//3 49//3 48//3 47//3 46//3 45//3 44//3 43//3 42//3 41//3 40//3 39//3 38//3 37//3 36//3 35//3 34//3 33//3 32//3 31//3 30//3 29//3 28//3 27//3 26//3 25//3 24//3 23//3 22//3 21//3 20//3 19//3 18//3 17//3 16//3 15//3 14//3 13//3 12//3 11//3 10//3 9//3 8//3 7//3 6//3
f 172//4 173//4 174//4 175//4 176//4 177//4 178//4 179//4 180//4 181//4 182//4 183//4 184//4 185//4 186//4 187//4 188//4 189//4 190//4 191//4 192//4 193//4 194//4 98//4 99//4 100//4 101//4 102//4 103//4 104//4 105//4 106//4 107//4 108//4 109//4 110//4 111//4 112//4 113//4 114//4 115//4 116//4 117//4 118//4 119//4 120//4 121//4 122//4 123//4 124//4 125//4 126//4 127//4 128//4 129//4 130//4 131//4 132//4 133//4 134//4 135//4 136//4 137//4 138//4 139//4 140//4 141//4 142//4 143//4 144//4 145//4 146//4 147//4 148//4 149//4 150//4 151//4 152//4 153//4 154//4 155//4 156//4 157//4 158//4 159//4 160//4 161//4 162//4 163//4 164//4 165//4 166//4 167//4 168//4 169//4 170//4 171//4
s 1
f 200//5 202//5 204//6 203//6 201//5 199//5 197//7 198//7
f 250//8 252//9 251//9 249//8
f 294//10 296//11 295//11 293//10 291//10 289//10 287//12 288//12 290//10 292//10
f 368//13 370//14 369//14 367//13
f 216//15 215//15 213//16 214//16
f 218//17 217//17 215//15 216//15
f 270//18 269//18 267//19 268//19
f 228//20 230//21 229//21 227//20
f 230//21 232//22 231//22 229//21
f 232//22 234//23 233//23 231//22
f 234//23 236//24 235//24 233//23
f 236//24 238//25 237//25 235//24
f 238//25 240//26 239//26 237//25
f 240//26 242//27 241//27 239//26
f 242//27 244//28 243//28 241//27
f 244//28 246//29 245//29 243//28
f 246//29 248//30 247//30 245//29
f 358//31 360//32 359//32 357//31 355//31 353//31 351//33 352//33 354//31 356//31
f 364//34 366//35 365//35 363//34 361//34 359//32 360//32 362//34
f 252//9 254//36 253//36 251//9
f 254//36 256//37 255//37 253//36
f 256//37 258//38 257//38 255//37
f 258//38 260//39 259//39 257//38
f 260//39 262//40 261//40 259//39
f 262//40 264//41 263//41 261//40
f 264//41 266//42 265//42 263//41
f 266//42 268//19 267//19 265//42
f 206//43 208//44 207//44 205//43
f 282//45 281//45 279//46 280//46
f 272//47 271//47 269//18 270//18
f 286//48 288//12 287//12 285//48 283//48 281//45 282//45 284//48
f 206//43 205//43 203//6 204//6
f 220//49 222//49 224//49 226//50 225//50 223//49 221//49 219//49 217//17 218//17
f 372//51 374//52 373//52 371//51
f 296//11 298//53 297//53 295//11
f 300//54 299//54 297//53 298//53
f 300//54 302//55 301//55 299//54
f 302//55 304//56 303//56 301//55
f 304//56 306//57 305//57 303//56
f 306//57 308//58 307//58 305//57
f 308//58 310//59 309//59 307//58
f 310//59 312//60 311//60 309//59
f 312//60 314//61 313//61 311//60
f 314//61 316//62 315//62 313//61
f 316//62 318//63 317//63 315//62
f 318//63 320//64 319//64 317//63
f 320//64 322//65 321//65 319//64
f 322//65 324//66 323//66 321//65
f 326//67 325//67 323//66 324//66
f 326//67 328//68 327//68 325//67
f 328//68 330//69 329//69 327//68
f 330//69 332//70 331//70 329//69
f 332//70 334//71 333//71 331//70
f 334//71 336//72 335//72 333//71
f 336//72 338//73 337//73 335//72
f 338//73 340//74 339//74 337//73
f 340//74 342//75 341//75 339//74
f 342//75 344//76 343//76 341//75
f 344//76 346//77 345//77 343//76
f 346//77 348//78 347//78 345//77
f 348//78 350//79 349//79 347//78
f 196//80 198//7 197//7 195//80
f 374//52 376//2 375//2 373//52
f 274//81 276//81 278//81 280//46 279//46 277//81 275//81 273//81 271//47 272//47
f 228//20 227//20 225//50 226//50
f 370//14 372//51 371//51 369//14
f 250//8 249//8 247//30 248//30
f 212//82 214//16 213//16 211//82 209//82 207//44 208//44 210//82
f 368//13 367//13 365//35 366//35
f 352//33 351//33 349//79 350//79
f 378//1 380//83 379//83 377//1
f 380//83 382//84 381//84 379//83
f 382//84 384//85 383//85 381//84
f 384//85 386//86 385//86 383//85
f 386//86 388//87 387//87 385//86
f 388//87 390//60 389//60 387//87
f 390//60 392//88 391//88 389//60
f 392//88 394//89 393//89 391//88
f 394//89 396//90 395//90 393//89
f 396//90 398//91 397//91 395//90
f 398//91 400//92 399//92 397//91
f 400//92 402//93 401//93 399//92
f 402//93 404//94 403//94 401//93
f 404//94 406//95 405//95 403//94
f 406//95 408//96 407//96 405//95
f 408//96 410//97 409//97 407//96
f 410//97 412//98 411//98 409//97
f 412//98 414//99 413//99 411//98
f 414//99 416//100 415//100 413//99
f 416//100 418//101 417//101 415//100
f 418//101 420//102 419//102 417//101
f 420//102 422//103 421//103 419//102
f 422//103 424//104 423//104 421//103
f 424//104 426//105 425//105 423//104
f 426//105 428//106 427//106 425//105
f 428//106 196//80 195//80 427//106
o Cube
v -0.077598 -0.005162 0.064931
v -0.077598 0.000556 0.064931
v -0.077598 -0.005162 -0.073245
v -0.077598 0.000556 -0.073245
v 0.067562 -0.005162 0.064931
v 0.067562 0.000556 0.064931
v 0.067562 -0.005162 -0.073245
v 0.067562 0.000556 -0.073245
vn -1.0000 0.0000 0.0000
vn 0.0000 0.0000 -1.0000
vn 1.0000 0.0000 0.0000
vn 0.0000 0.0000 1.0000
vn 0.0000 -1.0000 0.0000
vn 0.0000 1.0000 0.0000
usemtl Button_bacground
s off
f 429//107 430//107 432//107 431//107
f 431//108 432//108 436//108 435//108
f 435//109 436//109 434//109 433//109
f 433//110 434//110 430//110 429//110
f 431//111 435//111 433//111 429//111
f 436//112 432//112 430//112 434//112
